<?xml version="1.0" encoding="UTF-8" standalone="no"?>
<!DOCTYPE svg PUBLIC "-//W3C//DTD SVG 20010904//EN"
              "http://www.w3.org/TR/2001/REC-SVG-20010904/DTD/svg10.dtd">

<svg xmlns="http://www.w3.org/2000/svg"
     width="8.33333in" height="8.33333in"
     viewBox="0 0 600 600">
  <path id="Selection #4"
        fill="none" stroke="black" stroke-width="1"
        d="M 209.13,211.38
           C 211.98,211.30 213.09,213.13 216.09,213.42
             218.12,213.61 228.78,212.63 231.00,212.10
             246.16,208.46 238.87,202.50 253.00,203.04
             253.00,203.04 270.00,204.79 270.00,204.79
             270.00,204.79 283.00,202.30 283.00,202.30
             283.00,202.30 309.00,201.00 309.00,201.00
             309.00,201.00 320.00,201.98 320.00,201.98
             320.00,201.98 338.00,201.98 338.00,201.98
             338.00,201.98 348.00,202.91 348.00,202.91
             351.06,203.08 356.14,202.50 359.00,201.46
             362.02,200.36 363.52,198.52 367.00,198.83
             370.18,199.11 372.79,201.34 375.96,201.63
             375.96,201.63 387.17,200.17 387.17,200.17
             387.17,200.17 398.00,201.00 398.00,201.00
             398.00,201.00 419.00,201.00 419.00,201.00
             428.31,201.00 437.24,202.36 446.00,199.00
             448.80,201.76 449.12,201.68 453.00,202.00
             453.00,202.00 453.00,205.00 453.00,205.00
             453.00,205.00 442.00,204.00 442.00,204.00
             442.00,204.00 443.00,208.00 443.00,208.00
             443.00,208.00 434.00,211.00 434.00,211.00
             440.38,212.10 438.15,213.78 441.49,216.32
             445.31,219.23 447.73,215.42 449.00,223.08
             449.00,223.08 463.00,223.08 463.00,223.08
             463.00,223.08 481.00,225.00 481.00,225.00
             481.00,225.00 479.00,229.00 479.00,229.00
             491.89,230.82 500.47,237.11 506.00,237.48
             513.62,237.99 524.34,230.95 529.00,240.00
             522.09,239.03 520.88,237.20 514.00,240.00
             514.00,240.00 520.00,243.00 520.00,243.00
             520.00,243.00 499.00,241.00 499.00,241.00
             499.00,241.00 500.00,245.00 500.00,245.00
             497.36,242.13 497.62,241.83 498.00,238.00
             498.00,238.00 473.00,242.00 473.00,242.00
             477.47,243.51 477.49,244.38 481.00,246.04
             486.17,248.47 490.91,247.66 491.00,256.00
             491.00,256.00 505.00,253.65 505.00,253.65
             505.00,253.65 514.00,256.00 514.00,256.00
             509.53,259.84 509.28,256.75 504.72,257.09
             504.72,257.09 497.00,259.00 497.00,259.00
             497.00,259.00 499.00,263.00 499.00,263.00
             491.29,261.79 488.89,258.83 480.00,258.18
             480.00,258.18 448.00,260.96 448.00,260.96
             448.00,260.96 440.58,260.17 440.58,260.17
             440.58,260.17 434.00,262.04 434.00,262.04
             429.25,263.06 421.85,263.98 417.00,264.00
             417.00,264.00 413.00,264.00 413.00,264.00
             403.46,264.13 400.26,269.18 406.06,271.75
             413.18,274.91 419.54,275.77 427.00,277.20
             429.44,277.66 434.85,278.36 436.78,279.43
             440.87,281.72 439.56,285.81 445.04,287.97
             452.39,290.86 474.14,291.11 483.00,292.18
             488.60,292.86 493.59,295.85 499.00,297.24
             503.06,298.28 504.43,297.75 508.00,298.18
             508.00,298.18 518.00,300.48 518.00,300.48
             518.00,300.48 530.00,304.58 530.00,304.58
             538.20,307.64 544.90,309.13 547.00,319.00
             551.14,317.56 555.03,314.66 559.00,317.00
             559.00,317.00 554.00,320.00 554.00,320.00
             554.00,320.00 564.00,319.00 564.00,319.00
             560.24,325.66 555.09,321.91 549.00,322.13
             544.00,322.31 539.20,324.46 535.00,327.00
             544.95,326.92 545.53,326.40 556.00,327.85
             559.03,328.27 562.26,328.57 563.34,332.06
             565.20,338.05 556.29,340.96 552.00,341.88
             552.00,341.88 538.00,344.72 538.00,344.72
             538.00,344.72 523.00,346.65 523.00,346.65
             520.65,347.35 512.10,351.89 510.42,353.55
             507.50,356.44 507.71,359.61 506.06,363.00
             506.06,363.00 503.00,368.00 503.00,368.00
             503.00,368.00 521.00,369.00 521.00,369.00
             521.00,369.00 521.00,371.00 521.00,371.00
             521.00,371.00 517.00,372.00 517.00,372.00
             517.00,372.00 519.00,376.00 519.00,376.00
             511.08,374.21 511.05,372.04 504.00,378.00
             513.96,382.00 516.43,388.30 530.00,385.00
             530.00,385.00 529.00,383.00 529.00,383.00
             534.20,380.95 539.74,380.80 543.00,386.00
             536.95,385.19 535.06,385.38 530.00,389.00
             538.85,389.00 557.85,390.52 564.00,397.00
             564.00,397.00 546.00,394.00 546.00,394.00
             546.00,394.00 552.00,398.00 552.00,398.00
             552.00,398.00 552.00,400.00 552.00,400.00
             540.58,402.85 545.39,392.31 533.00,391.00
             533.00,391.00 511.00,387.21 511.00,387.21
             511.00,387.21 502.04,383.68 502.04,383.68
             498.83,383.21 497.98,384.92 493.96,384.79
             493.96,384.79 484.00,384.00 484.00,384.00
             484.00,384.00 454.00,384.00 454.00,384.00
             447.28,384.09 433.10,388.93 428.05,393.34
             423.67,397.17 420.99,404.65 424.60,409.91
             425.92,411.83 428.11,413.33 430.00,414.65
             432.42,416.33 435.29,418.27 438.00,419.39
             438.00,419.39 460.00,425.81 460.00,425.81
             462.24,426.07 464.72,426.00 467.00,425.81
             476.06,426.01 494.19,424.93 502.00,427.81
             505.94,429.26 513.77,433.51 515.63,437.17
             517.00,439.27 517.56,443.13 515.63,444.83
             514.04,445.93 509.87,446.30 508.00,446.59
             499.83,447.87 497.48,447.25 489.00,449.79
             485.16,450.80 481.77,449.66 477.83,449.79
             477.83,449.79 469.00,451.00 469.00,451.00
             468.96,454.19 469.11,456.00 467.70,459.00
             466.51,461.55 464.01,463.93 465.16,466.96
             466.50,470.48 471.16,471.89 473.96,473.81
             477.51,476.24 478.94,479.36 482.04,480.31
             485.23,481.29 488.36,479.05 493.00,479.55
             493.00,479.55 503.00,482.25 503.00,482.25
             510.28,484.17 517.02,483.69 520.00,492.00
             520.00,492.00 494.00,485.00 494.00,485.00
             501.59,493.99 503.74,486.78 507.00,496.00
             503.24,495.34 497.20,494.56 494.10,492.63
             488.25,489.00 491.47,487.03 482.00,485.00
             482.00,485.00 481.00,489.00 481.00,489.00
             474.40,485.85 472.81,480.46 469.12,481.45
             464.13,482.79 467.50,489.54 459.00,491.00
             459.00,491.00 461.43,485.91 461.43,485.91
             461.43,485.91 466.00,475.00 466.00,475.00
             466.00,475.00 445.00,466.38 445.00,466.38
             440.86,465.79 438.28,467.77 434.00,467.82
             434.00,467.82 416.00,465.51 416.00,465.51
             412.25,465.51 409.50,467.73 406.00,467.60
             403.30,467.49 400.64,465.81 398.00,464.99
             394.24,463.82 387.97,463.05 384.00,463.00
             380.60,462.96 372.88,463.28 370.02,462.43
             365.30,461.03 365.24,458.05 361.87,456.17
             358.89,454.51 352.53,455.04 349.00,455.00
             341.10,454.90 330.72,450.58 325.00,453.14
             317.97,456.28 310.85,462.61 308.36,470.00
             306.04,476.90 307.89,478.85 304.00,488.00
             304.00,488.00 302.00,479.00 302.00,479.00
             286.28,482.17 289.65,483.66 280.00,493.00
             280.40,485.86 282.77,480.81 289.02,477.02
             295.52,473.08 302.31,473.80 304.24,465.00
             304.48,463.57 304.81,461.55 304.24,460.14
             303.22,457.04 299.79,456.85 297.00,456.87
             297.00,456.87 279.00,459.00 279.00,459.00
             279.00,459.00 266.00,459.00 266.00,459.00
             255.06,458.93 259.40,455.22 252.82,452.42
             252.82,452.42 233.00,446.91 233.00,446.91
             223.25,444.12 212.07,444.60 202.00,443.91
             202.00,443.91 194.00,443.04 194.00,443.04
             190.31,442.90 179.21,443.89 176.39,445.93
             173.34,448.14 172.61,452.79 169.61,455.49
             167.55,457.34 164.57,457.96 162.00,458.86
             155.66,461.07 148.78,464.61 142.00,463.00
             146.48,458.21 154.03,455.35 160.00,452.72
             161.62,452.00 165.94,450.40 166.27,448.46
             167.21,442.93 158.24,445.49 156.00,445.98
             156.00,445.98 142.00,445.98 142.00,445.98
             142.00,445.98 124.00,449.00 124.00,449.00
             129.15,440.70 141.11,444.49 153.00,441.00
             153.00,441.00 140.00,439.00 140.00,439.00
             143.32,437.27 148.24,434.02 152.00,434.49
             157.53,435.19 160.28,440.48 167.00,440.94
             171.39,441.24 173.10,440.19 177.00,439.36
             177.00,439.36 184.00,437.90 184.00,437.90
             193.52,434.70 208.17,426.07 214.00,418.00
             214.00,418.00 205.00,415.05 205.00,415.05
             205.00,415.05 171.27,399.59 171.27,399.59
             171.27,399.59 164.87,391.78 164.87,391.78
             164.87,391.78 148.00,382.79 148.00,382.79
             148.00,382.79 139.00,381.00 139.00,381.00
             139.00,381.00 140.00,383.00 140.00,383.00
             127.04,378.07 131.55,385.58 117.00,383.82
             109.88,382.95 107.34,379.29 101.00,378.05
             89.02,376.00 90.94,377.88 81.00,378.05
             81.00,378.05 65.00,378.05 65.00,378.05
             49.04,378.03 58.01,384.94 42.00,385.00
             42.00,385.00 42.00,383.00 42.00,383.00
             42.00,383.00 48.00,379.00 48.00,379.00
             48.00,379.00 31.00,379.00 31.00,379.00
             31.00,379.00 31.00,377.00 31.00,377.00
             31.00,377.00 64.00,374.00 64.00,374.00
             64.00,374.00 54.00,369.00 54.00,369.00
             67.63,369.12 65.54,374.39 75.00,374.89
             83.18,375.32 83.42,370.39 92.00,372.00
             92.00,372.00 93.00,368.00 93.00,368.00
             93.00,368.00 77.00,364.00 77.00,364.00
             77.00,364.00 81.00,363.00 81.00,363.00
             81.00,363.00 81.00,361.00 81.00,361.00
             81.00,361.00 78.00,359.00 78.00,359.00
             86.99,359.82 90.32,363.99 96.00,363.22
             102.85,362.29 103.62,358.37 112.00,360.00
             112.05,358.55 111.96,356.64 112.60,355.31
             114.24,351.91 122.61,351.08 126.00,351.00
             120.84,345.20 117.08,347.03 110.00,347.00
             110.00,347.00 96.00,346.00 96.00,346.00
             98.50,342.26 99.97,343.38 104.00,342.63
             104.00,342.63 109.00,341.63 109.00,341.63
             112.79,341.54 124.14,347.07 130.00,335.00
             130.00,335.00 112.00,335.00 112.00,335.00
             112.00,335.00 93.00,332.99 93.00,332.99
             93.00,332.99 66.00,332.99 66.00,332.99
             66.00,332.99 55.00,332.99 55.00,332.99
             55.00,332.99 48.00,335.10 48.00,335.10
             48.00,335.10 37.00,335.10 37.00,335.10
             40.49,330.50 46.76,332.39 50.63,328.36
             53.33,325.53 50.86,322.89 47.98,321.74
             43.65,320.00 38.23,322.08 33.00,320.00
             33.00,320.00 42.00,317.24 42.00,317.24
             42.00,317.24 53.00,311.46 53.00,311.46
             53.00,311.46 67.00,307.23 67.00,307.23
             67.00,307.23 76.00,301.00 76.00,301.00
             83.62,305.01 98.73,300.86 107.00,299.00
             107.00,299.00 107.00,297.00 107.00,297.00
             107.00,297.00 104.00,296.00 104.00,296.00
             110.23,284.44 113.96,289.99 124.00,282.16
             124.00,282.16 100.00,282.16 100.00,282.16
             100.00,282.16 82.00,288.00 82.00,288.00
             82.00,288.00 85.00,283.00 85.00,283.00
             85.00,283.00 65.00,281.00 65.00,281.00
             72.72,272.51 78.37,280.39 85.00,279.39
             88.43,278.87 90.49,275.83 93.17,273.96
             99.92,269.26 98.12,273.78 109.00,263.00
             104.75,262.66 93.37,260.41 90.06,261.74
             84.52,263.97 87.93,267.81 81.00,269.00
             81.00,269.00 80.00,262.00 80.00,262.00
             73.90,264.00 68.41,266.41 62.00,265.00
             62.00,265.00 62.00,263.00 62.00,263.00
             62.00,263.00 65.00,261.00 65.00,261.00
             65.00,261.00 53.00,262.00 53.00,262.00
             53.00,262.00 53.00,260.00 53.00,260.00
             53.00,260.00 75.00,260.66 75.00,260.66
             75.00,260.66 86.00,257.34 86.00,257.34
             86.00,257.34 105.00,252.00 105.00,252.00
             105.00,252.00 102.00,248.00 102.00,248.00
             102.00,248.00 130.00,245.34 130.00,245.34
             130.00,245.34 149.00,233.00 149.00,233.00
             149.00,233.00 139.00,227.43 139.00,227.43
             139.00,227.43 129.00,226.00 129.00,226.00
             131.92,224.29 138.65,222.36 142.00,222.71
             145.40,223.07 147.30,224.98 152.00,224.79
             152.00,224.79 163.00,224.00 163.00,224.00
             185.19,223.97 194.16,224.68 216.00,218.00
             205.15,213.94 198.68,220.20 194.00,213.00
             206.09,213.00 207.27,211.43 209.13,211.38 Z
           M 379.00,202.00
           C 379.00,202.00 380.00,203.00 380.00,203.00
             380.00,203.00 380.00,202.00 380.00,202.00
             380.00,202.00 379.00,202.00 379.00,202.00 Z" />
</svg>
